<?xml version="1.0" encoding="utf-8"?>
<!-- Generator: Adobe Illustrator 27.5.0, SVG Export Plug-In . SVG Version: 6.00 Build 0)  -->
<svg version="1.1" id="Layer_1" xmlns="http://www.w3.org/2000/svg" xmlns:xlink="http://www.w3.org/1999/xlink" x="0px" y="0px"
	 viewBox="0 0 2000 2000" style="enable-background:new 0 0 2000 2000;" xml:space="preserve">
<g>
	<path d="M554.53,1640.1l-151.58-64.52l89.22-332.79c-20.68-1.85-41.37-5.87-61.43-11.42c-19.76-5.25-39.21-12.04-57.73-20.68
		l-89.22,333.1l-163.62-19.76c-30.56-3.7-59.27,15.74-66.99,45.07L43,1607.07l536.85,143.86l10.19-37.97
		C597.75,1683.63,582.62,1652.76,554.53,1640.1z"/>
	<path d="M1946.81,1569.1c-7.72-29.33-36.43-48.78-66.99-45.07l-163.62,19.76l-89.22-333.1c-18.52,8.64-37.97,15.44-57.73,20.68
		c-20.07,5.56-40.75,9.57-61.43,11.42l89.22,332.79l-151.58,64.52c-28.09,12.66-43.22,43.53-35.5,72.86l10.19,37.97L1957,1607.07
		C1957,1607.07,1946.81,1569.1,1946.81,1569.1z"/>
	<path d="M1485.27,1182.53c22.79-1.02,45.72-4.58,67.71-10.58c22.08-6.03,43.49-14.27,63.61-24.5
		c130.22-65.47,202.64-211.77,175.97-355.75l-97.26-518.4c-1.58-8.44-6.63-15.86-13.9-20.42c-7.28-4.58-16.13-5.91-24.45-3.69
		l-656.01,175.97c-0.35,0.1-0.61,0.37-0.95,0.48c-0.35-0.1-0.6-0.39-0.95-0.48L343.04,249.18c-8.32-2.22-17.17-0.89-24.45,3.69
		c-7.27,4.57-12.31,11.98-13.9,20.42l-97.26,518.4c-26.67,143.99,45.75,290.29,175.97,355.75c20.12,10.22,41.53,18.46,63.61,24.5
		c21.99,6,44.92,9.56,67.71,10.58c6.42,0.39,12.8,0.57,19.17,0.57c138.48,0,264.6-88.63,310.91-220.84L1000,522.36l155.19,439.9
		c46.31,132.21,172.43,220.84,310.91,220.84C1472.47,1183.1,1478.85,1182.92,1485.27,1182.53L1485.27,1182.53z M882.3,670.44H293.01
		l66.22-353l591.61,158.7L882.3,670.44L882.3,670.44z M1117.7,670.44l-68.55-194.3l591.61-158.7l66.22,353L1117.7,670.44
		L1117.7,670.44z"/>
</g>
</svg>
